<svg viewBox="0 0 512 512" xmlns="http://www.w3.org/2000/svg"><path d="m512 256c0 141.386719-114.613281 256-256 256s-256-114.613281-256-256 114.613281-256 256-256 256 114.613281 256 256zm0 0" fill="#00f3ff"/><path d="m512 256c0-12.433594-.90625-24.65625-2.617188-36.617188l-108.382812-108.382812-290 290 108.382812 108.382812c11.960938 1.710938 24.183594 2.617188 36.617188 2.617188 141.386719 0 256-114.613281 256-256zm0 0" fill="#00c2ef"/><path d="m111 111h290v290h-290zm0 0" fill="#2864f0"/><path d="m255.761719 111h145.238281v290h-145.238281zm0 0" fill="#0053bf"/><path d="m136.359375 136.359375h239.28125v239.28125h-239.28125zm0 0" fill="#fff"/><path d="m255.761719 136.359375h119.878906v239.28125h-119.878906zm0 0" fill="#e9edf5"/><path d="m304.75 149.5h56v56h-56zm0 0" fill="#bec3d2"/><path d="m228 149.5h56v56h-56zm0 0" fill="#cdd2e1"/><path d="m255.761719 149.5h28.238281v56h-28.238281zm0 0" fill="#bec3d2"/><path d="m151.25 149.5h56v56h-56zm0 0" fill="#cdd2e1"/><path d="m304.75 228h56v56h-56zm0 0" fill="#bec3d2"/><path d="m228 228h56v56h-56zm0 0" fill="#cdd2e1"/><path d="m255.761719 228h28.238281v56h-28.238281zm0 0" fill="#bec3d2"/><path d="m151.25 228h56v56h-56zm0 0" fill="#cdd2e1"/><path d="m304.75 306.5h56v56h-56zm0 0" fill="#bec3d2"/><path d="m228 306.5h56v56h-56zm0 0" fill="#cdd2e1"/><path d="m255.761719 306.5h28.238281v56h-28.238281zm0 0" fill="#bec3d2"/><path d="m151.25 306.5h56v56h-56zm0 0" fill="#cdd2e1"/><path d="m199 256c0 11.230469-9.101562 20.332031-20.332031 20.332031s-20.332031-9.101562-20.332031-20.332031 9.101562-20.332031 20.332031-20.332031 20.332031 9.101562 20.332031 20.332031zm0 0" fill="#613394"/><path d="m353.082031 177.5c0 11.230469-9.101562 20.332031-20.332031 20.332031s-20.332031-9.101562-20.332031-20.332031 9.101562-20.332031 20.332031-20.332031 20.332031 9.101562 20.332031 20.332031zm0 0" fill="#4b1b7a"/><path d="m276.332031 335.5c0 11.230469-9.101562 20.332031-20.332031 20.332031s-20.332031-9.101562-20.332031-20.332031 9.101562-20.332031 20.332031-20.332031 20.332031 9.101562 20.332031 20.332031zm0 0" fill="#613394"/><path d="m256 315.167969c-.078125 0-.15625.011719-.238281.011719v40.640624c.082031.003907.160156.015626.238281.015626 11.230469 0 20.332031-9.105469 20.332031-20.335938 0-11.226562-9.101562-20.332031-20.332031-20.332031zm0 0" fill="#4b1b7a"/></svg>