<?xml version="1.0"?>
<svg xmlns="http://www.w3.org/2000/svg" xmlns:xlink="http://www.w3.org/1999/xlink" xmlns:svgjs="http://svgjs.com/svgjs" version="1.1" width="512" height="512" x="0" y="0" viewBox="0 0 512 512" style="enable-background:new 0 0 512 512" xml:space="preserve" class=""><g transform="matrix(1.22,0,0,1.22,-1.3199999999999932,-1.3611328124999602)"><path xmlns="http://www.w3.org/2000/svg" d="m379.835938 421.464844h-338.210938c-22.988281 0-41.625-18.636719-41.625-41.625v-338.214844c0-22.988281 18.636719-41.625 41.625-41.625h338.210938c22.988281 0 41.628906 18.636719 41.628906 41.625v338.210938c0 22.992187-18.636719 41.628906-41.628906 41.628906zm0 0" fill="#e5e7eb" data-original="#e1ebef" style="" class=""/><g xmlns="http://www.w3.org/2000/svg" fill="#c4d3d6"><path d="m397.679688 4.011719c2.570312 5.410156 4.011718 11.457031 4.011718 17.84375v348.617187c0 17.242188-13.976562 31.21875-31.21875 31.21875h-348.617187c-6.386719 0-12.433594-1.441406-17.84375-4.011718 6.683593 14.0625 21.011719 23.785156 37.613281 23.785156h338.210938c22.988281 0 41.628906-18.636719 41.628906-41.625v-338.214844c0-16.601562-9.726563-30.929688-23.785156-37.613281zm0 0" fill="#cbcccf" data-original="#c4d3d6" style="" class=""/><path d="m140.488281 418.863281c-4.308593 0-7.804687-3.496093-7.804687-7.804687v-400.652344c0-4.308594 3.492187-7.804688 7.804687-7.804688s7.804688 3.496094 7.804688 7.804688v400.652344c0 4.308594-3.496094 7.804687-7.804688 7.804687zm0 0" fill="#cbcccf" data-original="#c4d3d6" style="" class=""/><path d="m280.976562 418.863281c-4.3125 0-7.804687-3.496093-7.804687-7.804687v-400.652344c0-4.308594 3.492187-7.804688 7.804687-7.804688 4.308594 0 7.804688 3.496094 7.804688 7.804688v400.652344c0 4.308594-3.496094 7.804687-7.804688 7.804687zm0 0" fill="#cbcccf" data-original="#c4d3d6" style="" class=""/><path d="m411.058594 148.292969h-400.652344c-4.308594 0-7.804688-3.492188-7.804688-7.804688s3.496094-7.804687 7.804688-7.804687h400.652344c4.308594 0 7.804687 3.492187 7.804687 7.804687s-3.496093 7.804688-7.804687 7.804688zm0 0" fill="#cbcccf" data-original="#c4d3d6" style="" class=""/><path d="m411.058594 288.78125h-400.652344c-4.308594 0-7.804688-3.496094-7.804688-7.804688 0-4.3125 3.496094-7.804687 7.804688-7.804687h400.652344c4.308594 0 7.804687 3.492187 7.804687 7.804687 0 4.308594-3.496093 7.804688-7.804687 7.804688zm0 0" fill="#cbcccf" data-original="#c4d3d6" style="" class=""/></g><path xmlns="http://www.w3.org/2000/svg" d="m512 54.113281h-47.871094v-43.707031c0-5.746094 4.660156-10.40625 10.40625-10.40625h27.058594c5.746094 0 10.40625 4.660156 10.40625 10.40625zm0 0" fill="#00000000" data-original="#ef3535" style="" class=""/><path xmlns="http://www.w3.org/2000/svg" d="m498.472656 0v30.179688c0 5.746093-4.660156 10.40625-10.40625 10.40625h-23.9375v13.527343h47.871094v-43.707031c0-5.746094-4.660156-10.40625-10.40625-10.40625zm0 0" fill="#d3313100" data-original="#d33131" style="" class=""/><path xmlns="http://www.w3.org/2000/svg" d="m512 378.796875-20.46875 35.59375c-1.535156 2.675781-5.394531 2.675781-6.933594 0l-20.464844-35.59375v-324.683594h47.867188zm0 0" fill="#ffd43200" data-original="#ffd432" style="" class=""/><path xmlns="http://www.w3.org/2000/svg" d="m498.472656 54.113281v320.519531l-18.367187 31.945313 4.492187 7.8125c1.539063 2.675781 5.394532 2.675781 6.933594 0l20.46875-35.59375v-324.683594zm0 0" fill="#f4ac0300" data-original="#f4ac03" style="" class=""/><path xmlns="http://www.w3.org/2000/svg" d="m81.28125 351.21875 23.179688-23.179688c3.046874-3.046874 3.046874-7.988281 0-11.035156-3.046876-3.050781-7.988282-3.050781-11.039063 0l-23.179687 23.179688-23.175782-23.179688c-3.050781-3.050781-7.992187-3.050781-11.039062 0-3.046875 3.046875-3.046875 7.988282 0 11.035156l23.179687 23.179688-23.179687 23.179688c-3.046875 3.050781-3.046875 7.992187 0 11.039062 1.523437 1.523438 3.519531 2.285156 5.519531 2.285156 1.996094 0 3.992187-.761718 5.519531-2.285156l23.175782-23.179688 23.179687 23.179688c1.523437 1.523438 3.523437 2.285156 5.519531 2.285156 2 0 3.996094-.761718 5.519532-2.285156 3.046874-3.046875 3.046874-7.988281 0-11.039062zm0 0" fill="#9ca3af" data-original="#757574" style="" class=""/><path xmlns="http://www.w3.org/2000/svg" d="m362.257812 70.242188 23.179688-23.175782c3.046875-3.050781 3.046875-7.992187 0-11.039062-3.050781-3.046875-7.992188-3.046875-11.039062 0l-23.179688 23.175781-23.179688-23.175781c-3.046874-3.046875-7.988281-3.046875-11.039062 0-3.046875 3.046875-3.046875 7.988281 0 11.039062l23.179688 23.175782-23.179688 23.179687c-3.046875 3.050781-3.046875 7.992187 0 11.039063 1.523438 1.523437 3.523438 2.285156 5.519531 2.285156 1.996094 0 3.996094-.761719 5.519531-2.285156l23.179688-23.179688 23.179688 23.179688c1.523437 1.523437 3.519531 2.285156 5.515624 2.285156 2 0 3.996094-.761719 5.519532-2.285156 3.050781-3.046876 3.050781-7.988282 0-11.039063zm0 0" fill="#9ca3af" data-original="#757574" style="" class=""/><path xmlns="http://www.w3.org/2000/svg" d="m351.21875 391.285156c-22.089844 0-40.0625-17.972656-40.0625-40.066406 0-22.089844 17.972656-40.0625 40.0625-40.0625 22.09375 0 40.066406 17.972656 40.066406 40.0625 0 22.09375-17.972656 40.066406-40.066406 40.066406zm0-64.519531c-13.484375 0-24.453125 10.96875-24.453125 24.453125s10.96875 24.457031 24.453125 24.457031 24.457031-10.972656 24.457031-24.457031-10.972656-24.453125-24.457031-24.453125zm0 0" fill="#9ca3af" data-original="#757574" style="" class=""/><path xmlns="http://www.w3.org/2000/svg" d="m70.242188 110.308594c-22.089844 0-40.0625-17.972656-40.0625-40.066406 0-22.089844 17.972656-40.0625 40.0625-40.0625 22.09375 0 40.066406 17.972656 40.066406 40.0625 0 22.09375-17.972656 40.066406-40.066406 40.066406zm0-64.519532c-13.484376 0-24.453126 10.972657-24.453126 24.453126 0 13.484374 10.972657 24.457031 24.453126 24.457031 13.484374 0 24.457031-10.972657 24.457031-24.457031 0-13.480469-10.96875-24.453126-24.457031-24.453126zm0 0" fill="#9ca3af" data-original="#757574" style="" class=""/><path xmlns="http://www.w3.org/2000/svg" d="m210.730469 250.796875c-22.089844 0-40.0625-17.972656-40.0625-40.066406 0-22.089844 17.972656-40.0625 40.0625-40.0625 22.09375 0 40.066406 17.972656 40.066406 40.0625 0 22.09375-17.972656 40.066406-40.066406 40.066406zm0-64.519531c-13.484375 0-24.453125 10.96875-24.453125 24.453125 0 13.488281 10.96875 24.457031 24.453125 24.457031s24.457031-10.972656 24.457031-24.457031-10.972656-24.453125-24.457031-24.453125zm0 0" fill="#9ca3af" data-original="#757574" style="" class=""/></g></svg>
